HIERARCHY
ROOT Hips
{
	OFFSET 0.000000 83.214638 0.000000
	CHANNELS 6 Xposition Yposition Zposition Xrotation Yrotation Zrotation
	JOINT Pelvis
	{
		OFFSET 0.000000 0.000000 0.000000
		CHANNELS 3 Xrotation Yrotation Zrotation
		JOINT LeftUpLeg
		{
			OFFSET 8.479700 -4.795502 -0.379100
			CHANNELS 3 Xrotation Yrotation Zrotation
			JOINT LeftLeg
			{
				OFFSET 0.024144 -32.555107 0.112900
				CHANNELS 3 Xrotation Yrotation Zrotation
				JOINT LeftFoot
				{
					OFFSET -0.024144 -32.638630 -3.012600
					CHANNELS 3 Xrotation Yrotation Zrotation
					JOINT LeftToeBase
					{
						OFFSET 0.970200 -13.225400 11.864200
						CHANNELS 3 Xrotation Yrotation Zrotation
						End Site
						{
							OFFSET 0.000000 12.319262 0.000000
						}
					}
					JOINT LFootTongue
					{
						OFFSET 1.142400 -1.059800 6.665200
						CHANNELS 3 Xrotation Yrotation Zrotation
						End Site
						{
							OFFSET 0.000000 12.319262 0.000000
						}
					}
				}
				JOINT LeftPantLeg
				{
					OFFSET 0.918482 -16.533964 -2.284700
					CHANNELS 3 Xrotation Yrotation Zrotation
					End Site
					{
						OFFSET 0.350399 24.744368 0.000000
					}
				}
			}
		}
		JOINT RightUpLeg
		{
			OFFSET -8.479700 -4.795502 -0.379100
			CHANNELS 3 Xrotation Yrotation Zrotation
			JOINT RightLeg
			{
				OFFSET -0.023144 -32.555092 0.112900
				CHANNELS 3 Xrotation Yrotation Zrotation
				JOINT RightFoot
				{
					OFFSET 0.023144 -32.638641 -3.012700
					CHANNELS 3 Xrotation Yrotation Zrotation
					JOINT RightToeBase
					{
						OFFSET -0.970200 -13.225400 11.864200
						CHANNELS 3 Xrotation Yrotation Zrotation
						End Site
						{
							OFFSET 0.000000 12.319244 0.000000
						}
					}
					JOINT RFootTongue
					{
						OFFSET -1.142200 -1.059800 6.665200
						CHANNELS 3 Xrotation Yrotation Zrotation
						End Site
						{
							OFFSET 0.000000 12.319243 0.000000
						}
					}
				}
				JOINT RightPantLeg
				{
					OFFSET -0.919482 -16.533978 -2.284800
					CHANNELS 3 Xrotation Yrotation Zrotation
					End Site
					{
						OFFSET -0.350400 24.744419 0.000000
					}
				}
			}
		}
	}
	JOINT Spine
	{
		OFFSET 0.000000 7.722000 1.166200
		CHANNELS 3 Xrotation Yrotation Zrotation
		JOINT Spine1
		{
			OFFSET 0.000000 12.024101 0.248800
			CHANNELS 3 Xrotation Yrotation Zrotation
			JOINT Spine2
			{
				OFFSET 0.000000 11.502998 -0.491200
				CHANNELS 3 Xrotation Yrotation Zrotation
				JOINT Neck
				{
					OFFSET 0.000000 18.430702 -3.123100
					CHANNELS 3 Xrotation Yrotation Zrotation
					JOINT Head
					{
						OFFSET 0.000000 9.051102 1.034000
						CHANNELS 3 Xrotation Yrotation Zrotation
						JOINT HairB
						{
							OFFSET 0.208400 24.786102 24.822300
							CHANNELS 3 Xrotation Yrotation Zrotation
							End Site
							{
								OFFSET 0.000000 32.263779 0.000000
							}
						}
						JOINT HairA
						{
							OFFSET -7.081100 24.428299 23.196600
							CHANNELS 3 Xrotation Yrotation Zrotation
							End Site
							{
								OFFSET 0.000000 32.263779 0.000000
							}
						}
						JOINT Hat
						{
							OFFSET 16.728800 15.048294 -15.439601
							CHANNELS 3 Xrotation Yrotation Zrotation
							End Site
							{
								OFFSET 0.000000 32.263779 0.000000
							}
						}
					}
				}
				JOINT LeftShoulder
				{
					OFFSET 6.197800 13.665199 -4.064700
					CHANNELS 3 Xrotation Yrotation Zrotation
					JOINT LeftArm
					{
						OFFSET 7.778100 -0.187103 -1.709300
						CHANNELS 3 Xrotation Yrotation Zrotation
						JOINT LeftForeArm
						{
							OFFSET 22.049376 0.000000 0.000000
							CHANNELS 3 Xrotation Yrotation Zrotation
							JOINT LeftHand
							{
								OFFSET 23.009392 0.000000 0.000000
								CHANNELS 3 Xrotation Yrotation Zrotation
								JOINT LeftHandThumb1
								{
									OFFSET 3.507191 -2.063065 3.133727
									CHANNELS 3 Xrotation Yrotation Zrotation
									JOINT LeftHandThumb2
									{
										OFFSET 3.101337 -1.790558 1.790558
										CHANNELS 3 Xrotation Yrotation Zrotation
										JOINT LeftHandThumb3
										{
											OFFSET 3.058640 -1.765907 1.765906
											CHANNELS 3 Xrotation Yrotation Zrotation
											End Site
											{
												OFFSET -0.415260 3.926476 -0.049563
											}
										}
									}
								}
								JOINT LeftHandIndex1
								{
									OFFSET 11.334419 -0.901459 3.706815
									CHANNELS 3 Xrotation Yrotation Zrotation
									JOINT LeftHandIndex2
									{
										OFFSET 3.283112 0.000000 0.000000
										CHANNELS 3 Xrotation Yrotation Zrotation
										JOINT LeftHandIndex3
										{
											OFFSET 3.323853 0.000000 0.000000
											CHANNELS 3 Xrotation Yrotation Zrotation
											End Site
											{
												OFFSET -1.135597 3.097809 0.402452
											}
										}
									}
								}
								JOINT LeftHandMiddle1
								{
									OFFSET 11.335861 0.000000 0.000000
									CHANNELS 3 Xrotation Yrotation Zrotation
									JOINT LeftHandMiddle2
									{
										OFFSET 3.410492 0.000000 0.000000
										CHANNELS 3 Xrotation Yrotation Zrotation
										JOINT LeftHandMiddle3
										{
											OFFSET 3.312172 0.000000 0.000000
											CHANNELS 3 Xrotation Yrotation Zrotation
											End Site
											{
												OFFSET -1.150200 3.080154 0.400270
											}
										}
									}
								}
								JOINT LeftHandRing1
								{
									OFFSET 11.514786 -0.013176 -3.003090
									CHANNELS 3 Xrotation Yrotation Zrotation
									JOINT LeftHandRing2
									{
										OFFSET 3.053307 0.000000 0.000000
										CHANNELS 3 Xrotation Yrotation Zrotation
										JOINT LeftHandRing3
										{
											OFFSET 3.295807 0.000000 0.000000
											CHANNELS 3 Xrotation Yrotation Zrotation
											End Site
											{
												OFFSET -1.281006 3.013344 0.375733
											}
										}
									}
								}
								JOINT LeftHandPinky1
								{
									OFFSET 10.518692 -0.960396 -5.730441
									CHANNELS 3 Xrotation Yrotation Zrotation
									JOINT LeftHandPinky2
									{
										OFFSET 2.861649 0.000000 0.000000
										CHANNELS 3 Xrotation Yrotation Zrotation
										JOINT LeftHandPinky3
										{
											OFFSET 2.863380 0.000000 0.000000
											CHANNELS 3 Xrotation Yrotation Zrotation
											End Site
											{
												OFFSET -0.843597 2.711159 0.369971
											}
										}
									}
								}
							}
							JOINT LSleeve
							{
								OFFSET 6.676277 -0.344902 -1.011730
								CHANNELS 3 Xrotation Yrotation Zrotation
								End Site
								{
									OFFSET 0.000000 14.885353 0.000000
								}
							}
						}
					}
				}
				JOINT RightShoulder
				{
					OFFSET -6.197800 13.665199 -4.064700
					CHANNELS 3 Xrotation Yrotation Zrotation
					JOINT RightArm
					{
						OFFSET -7.778100 -0.187103 -1.709300
						CHANNELS 3 Xrotation Yrotation Zrotation
						JOINT RightForeArm
						{
							OFFSET -22.049376 0.000000 0.000000
							CHANNELS 3 Xrotation Yrotation Zrotation
							JOINT RightHand
							{
								OFFSET -23.009392 0.000000 0.000000
								CHANNELS 3 Xrotation Yrotation Zrotation
								JOINT RightHandThumb1
								{
									OFFSET -3.507191 -2.063065 3.133727
									CHANNELS 3 Xrotation Yrotation Zrotation
									JOINT RightHandThumb2
									{
										OFFSET -3.101337 -1.790558 1.790558
										CHANNELS 3 Xrotation Yrotation Zrotation
										JOINT RightHandThumb3
										{
											OFFSET -3.058640 -1.765907 1.765906
											CHANNELS 3 Xrotation Yrotation Zrotation
											End Site
											{
												OFFSET 0.415260 3.926476 -0.049563
											}
										}
									}
								}
								JOINT RightHandIndex1
								{
									OFFSET -11.334419 -0.901459 3.706815
									CHANNELS 3 Xrotation Yrotation Zrotation
									JOINT RightHandIndex2
									{
										OFFSET -3.283112 0.000000 0.000000
										CHANNELS 3 Xrotation Yrotation Zrotation
										JOINT RightHandIndex3
										{
											OFFSET -3.323853 0.000000 0.000000
											CHANNELS 3 Xrotation Yrotation Zrotation
											End Site
											{
												OFFSET 1.135597 3.097809 0.402452
											}
										}
									}
								}
								JOINT RightHandMiddle1
								{
									OFFSET -11.335861 0.000000 0.000000
									CHANNELS 3 Xrotation Yrotation Zrotation
									JOINT RightHandMiddle2
									{
										OFFSET -3.410492 0.000000 0.000000
										CHANNELS 3 Xrotation Yrotation Zrotation
										JOINT RightHandMiddle3
										{
											OFFSET -3.312172 0.000000 0.000000
											CHANNELS 3 Xrotation Yrotation Zrotation
											End Site
											{
												OFFSET 1.150200 3.080154 0.400270
											}
										}
									}
								}
								JOINT RightHandRing1
								{
									OFFSET -11.514786 -0.013176 -3.003090
									CHANNELS 3 Xrotation Yrotation Zrotation
									JOINT RightHandRing2
									{
										OFFSET -3.053307 0.000000 0.000000
										CHANNELS 3 Xrotation Yrotation Zrotation
										JOINT RightHandRing3
										{
											OFFSET -3.295807 0.000000 0.000000
											CHANNELS 3 Xrotation Yrotation Zrotation
											End Site
											{
												OFFSET 1.281006 3.013344 0.375733
											}
										}
									}
								}
								JOINT RightHandPinky1
								{
									OFFSET -10.518692 -0.960396 -5.730441
									CHANNELS 3 Xrotation Yrotation Zrotation
									JOINT RightHandPinky2
									{
										OFFSET -2.861649 0.000000 0.000000
										CHANNELS 3 Xrotation Yrotation Zrotation
										JOINT RightHandPinky3
										{
											OFFSET -2.863380 0.000000 0.000000
											CHANNELS 3 Xrotation Yrotation Zrotation
											End Site
											{
												OFFSET 0.843597 2.711159 0.369971
											}
										}
									}
								}
							}
							JOINT RSleeve
							{
								OFFSET -6.676277 -0.344902 -1.011730
								CHANNELS 3 Xrotation Yrotation Zrotation
								End Site
								{
									OFFSET 0.000000 14.885353 0.000000
								}
							}
						}
					}
				}
				JOINT Backpack
				{
					OFFSET 0.000000 -2.471497 36.677502
					CHANNELS 3 Xrotation Yrotation Zrotation
					End Site
					{
						OFFSET 0.000000 20.427315 0.000000
					}
				}
				JOINT Hood
				{
					OFFSET 0.000000 18.754097 -10.431000
					CHANNELS 3 Xrotation Yrotation Zrotation
					JOINT Hood1
					{
						OFFSET 0.000000 -5.011002 -7.685901
						CHANNELS 3 Xrotation Yrotation Zrotation
						End Site
						{
							OFFSET 0.000000 9.175140 0.000000
						}
					}
				}
				JOINT LHoodieString
				{
					OFFSET 5.250500 16.397697 3.089900
					CHANNELS 3 Xrotation Yrotation Zrotation
					JOINT LHoodieString1
					{
						OFFSET 0.257700 -6.364304 3.694600
						CHANNELS 3 Xrotation Yrotation Zrotation
						JOINT LHoodieString2
						{
							OFFSET 0.000000 -9.643799 2.679100
							CHANNELS 3 Xrotation Yrotation Zrotation
							End Site
							{
								OFFSET 0.000000 10.009018 0.000000
							}
						}
					}
				}
				JOINT RHoodieString
				{
					OFFSET -5.250500 16.397697 3.089900
					CHANNELS 3 Xrotation Yrotation Zrotation
					JOINT RHoodieString1
					{
						OFFSET -0.257700 -6.364304 3.694600
						CHANNELS 3 Xrotation Yrotation Zrotation
						JOINT RHoodieString2
						{
							OFFSET 0.000000 -9.643799 2.679100
							CHANNELS 3 Xrotation Yrotation Zrotation
							End Site
							{
								OFFSET 0.000000 10.009018 0.000000
							}
						}
					}
				}
			}
			JOINT LBackpack_Strap
			{
				OFFSET 15.223200 -7.719803 -6.610900
				CHANNELS 3 Xrotation Yrotation Zrotation
				End Site
				{
					OFFSET 0.000000 16.040596 0.000000
				}
			}
			JOINT RBackpack_Strap
			{
				OFFSET -15.223000 -7.719803 -6.610900
				CHANNELS 3 Xrotation Yrotation Zrotation
				End Site
				{
					OFFSET 0.000000 16.040596 0.000000
				}
			}
		}
	}
	JOINT BoyFacialAnim_Joint
	{
		OFFSET 1.000000 -82.208099 -1.550900
		CHANNELS 3 Xrotation Yrotation Zrotation
		End Site
		{
			OFFSET 0.000000 30.012791 0.000000
		}
	}
}
MOTION
Frames: 5
Frame Time: 0.033333
0.164372 66.688385 1.547373 12.597835 -8.226772 -1.316039 0.000000 0.000001 -0.000000 -52.693656 4.933053 7.500394 110.188519 5.017337 -3.088144 -17.244483 8.514288 7.831489 -0.000002 -0.000000 -0.000001 -0.000002 -0.000000 -0.000001 -0.000002 0.000000 -0.000000 -34.590264 0.322582 12.573935 70.365866 -0.877202 -3.294448 -49.613552 -17.406361 -5.865531 0.000000 -0.000000 0.000000 0.000000 -0.000000 0.000000 0.000002 -0.000000 0.000000 9.859242 -4.056580 2.863657 3.908220 -1.274540 -0.342417 3.894902 -1.299759 -0.356492 1.608068 4.310546 0.774590 -9.375476 18.065792 14.676985 -0.000001 0.000000 0.000000 -0.000001 0.000000 0.000000 -0.000001 0.000000 0.000000 -0.043533 -1.609818 14.026731 -95.286501 -27.602925 -76.054669 -0.000030 -35.959546 -0.000026 -131.360179 6.201283 13.473258 4.709218 9.560358 3.111994 19.473190 -1.474903 7.636917 -0.000000 -0.000000 0.000004 -0.212826 3.933706 -36.747131 2.944391 5.080219 -60.169937 -0.000006 -0.000000 -0.000004 0.405911 5.507041 -52.453151 3.387139 5.308616 -65.057477 0.000003 0.000000 -0.000003 -0.074381 5.736778 -61.061420 4.056751 5.570069 -72.112673 0.000001 0.000000 -0.000004 -6.565571 4.545143 -72.425229 3.299634 5.267220 -64.107855 -0.000000 0.000001 -0.000002 -0.000002 -0.000000 0.000000 0.738347 4.977038 -2.115367 -60.627204 33.117378 87.662814 0.000049 105.807806 -0.000060 -25.187579 -28.796767 -34.822548 8.377120 -4.904141 11.022003 21.620212 -18.183898 -18.379223 0.000001 0.000001 -0.000001 -0.920023 1.683589 12.434964 0.748105 -2.533479 32.898293 -0.000001 -0.000001 0.000002 3.413057 -7.186269 51.650246 6.296798 -4.359568 110.634673 0.000000 0.000001 0.000002 -3.349040 -2.600432 57.010564 5.440852 -4.590911 99.698154 -0.000001 -0.000000 0.000000 -3.996449 -3.303938 64.593864 4.058847 -4.618683 82.610510 0.000001 0.000001 0.000000 0.000000 -0.000002 0.000001 -0.000001 -0.000000 0.000000 -0.000001 -0.000000 0.000000 -0.000001 -0.000000 0.000000 -0.000001 -0.000000 0.000000 -0.000001 -0.000000 -0.000000 -0.000001 0.000000 0.000000 -0.000001 -0.000000 0.000000 -0.000001 -0.000000 -0.000000 -0.000001 0.000000 0.000000 0.000002 -0.000001 -0.000000 0.000002 -0.000001 -0.000000 0.000000 0.000001 -0.000000 
0.118381 64.611137 10.821052 13.768786 -8.739469 2.325145 -0.000000 0.000001 0.000000 -75.616164 3.988429 7.960924 111.102077 -0.320701 -3.021796 -23.277406 12.332687 3.281815 0.000001 0.000001 -0.000000 0.000001 0.000001 -0.000000 -0.000000 -0.000000 -0.000000 -24.903505 2.329452 8.487533 69.545464 -0.311037 -5.133144 -57.603992 -15.689044 -5.506545 -0.000000 -0.000001 -0.000000 -0.000000 -0.000001 -0.000000 -0.000002 -0.000000 -0.000000 11.853321 -2.557760 0.167265 5.660280 -0.320844 -1.783314 5.662125 -0.265626 -1.683692 0.417730 3.380219 0.593151 -17.614991 11.646821 14.167425 0.000003 -0.000000 -0.000002 0.000003 -0.000000 -0.000002 0.000003 -0.000000 -0.000002 -0.295742 -0.848066 11.395305 -108.410532 -20.426190 -81.823119 0.000005 -27.114120 0.000009 -117.631881 10.249031 10.635784 4.399057 8.668785 2.883933 19.473192 -1.474909 7.636916 0.000000 0.000002 0.000000 -0.212813 3.933730 -36.747114 2.944394 5.080217 -60.169937 -0.000000 -0.000000 -0.000002 0.405917 5.507062 -52.453148 3.387142 5.308617 -65.057470 -0.000001 -0.000001 0.000002 -0.074369 5.736798 -61.061427 4.056742 5.570062 -72.112686 -0.000000 0.000000 -0.000004 -6.565559 4.545143 -72.425215 3.299629 5.267219 -64.107821 0.000000 -0.000002 -0.000001 -0.000002 -0.000000 0.000001 0.554758 8.256225 -0.080216 -64.239077 31.462638 84.091814 0.000481 102.902585 -0.000480 -23.057650 -24.978893 -29.275434 8.377119 -4.904143 11.022006 21.620206 -18.183897 -18.379226 -0.000001 0.000000 0.000000 -0.920023 1.683590 12.434966 0.748104 -2.533482 32.898296 0.000000 0.000001 0.000004 3.413057 -7.186269 51.650246 6.296800 -4.359568 110.634673 0.000001 0.000001 -0.000002 -3.349040 -2.600432 57.010561 5.440852 -4.590910 99.698154 -0.000001 0.000001 0.000004 -3.996449 -3.303939 64.593864 4.058848 -4.618683 82.610523 -0.000001 -0.000002 -0.000000 0.000000 -0.000000 -0.000000 0.000003 -0.000000 0.000001 0.000003 -0.000000 0.000001 0.000003 -0.000000 0.000001 0.000003 -0.000000 0.000001 0.000003 -0.000000 0.000001 0.000001 -0.000000 0.000000 0.000003 -0.000000 0.000001 0.000003 -0.000000 0.000001 0.000001 -0.000000 0.000000 0.000000 -0.000001 -0.000000 0.000000 -0.000001 -0.000000 -0.000000 0.000001 0.000000 
0.190891 63.798035 17.702402 15.013709 -8.487793 6.102458 0.000000 -0.000000 -0.000000 -90.385854 3.165246 5.067475 97.538127 0.202963 -2.121649 -18.025539 14.479554 -1.890796 0.000000 0.000000 0.000000 0.000000 0.000000 0.000000 0.000002 0.000000 0.000000 -20.240427 2.865769 3.072907 70.484704 -1.563809 -6.899887 -55.319287 -13.175986 -2.636323 0.000000 0.000001 -0.000000 0.000000 0.000001 -0.000000 0.000000 0.000000 -0.000000 14.878635 -1.731677 -2.631634 9.356616 -0.120147 -3.327273 9.372388 0.016980 -3.197984 -1.144030 1.944837 -0.093120 -30.054967 2.459458 10.559505 0.000000 -0.000000 0.000001 0.000000 -0.000000 0.000001 0.000000 -0.000000 0.000001 -0.723825 0.043217 7.005112 -116.897622 -5.146846 -86.860540 0.000008 -19.795678 0.000018 -101.249973 12.917443 1.867043 3.588867 6.363560 2.262157 19.473197 -1.474947 7.636930 -0.000002 0.000002 -0.000001 -0.212816 3.933735 -36.747121 2.944390 5.080221 -60.169937 0.000001 0.000001 -0.000003 0.405918 5.507059 -52.453162 3.387140 5.308615 -65.057463 0.000003 0.000000 -0.000003 -0.074383 5.736795 -61.061427 4.056748 5.570065 -72.112659 0.000000 -0.000001 0.000001 -6.565566 4.545159 -72.425236 3.299620 5.267225 -64.107807 -0.000003 0.000003 0.000004 -0.000000 -0.000000 0.000001 0.486307 10.138015 0.528114 -67.495178 32.744825 79.250705 0.000097 97.807838 -0.000101 -18.139779 -20.401671 -20.725622 8.377119 -4.904142 11.022004 21.620212 -18.183900 -18.379228 -0.000002 0.000001 -0.000000 -0.920023 1.683590 12.434967 0.748105 -2.533480 32.898296 -0.000001 -0.000000 0.000003 3.413057 -7.186269 51.650246 6.296798 -4.359569 110.634673 0.000001 0.000001 -0.000002 -3.349040 -2.600431 57.010561 5.440853 -4.590910 99.698154 -0.000001 -0.000001 0.000000 -3.996449 -3.303940 64.593857 4.058847 -4.618681 82.610516 0.000001 0.000000 0.000000 0.000000 0.000002 -0.000001 0.000002 0.000000 0.000000 0.000002 0.000000 0.000000 0.000002 0.000000 0.000000 0.000002 0.000000 0.000000 0.000002 0.000000 0.000000 0.000004 -0.000000 0.000001 0.000002 0.000000 0.000000 0.000002 0.000000 0.000000 0.000004 -0.000000 0.000001 0.000002 0.000000 0.000000 0.000002 0.000000 0.000000 0.000000 -0.000000 -0.000000 
0.334356 63.436447 23.877577 16.646440 -8.127812 9.797233 0.000000 0.000000 -0.000001 -90.797482 2.583785 0.965826 76.204106 4.384626 -0.735229 -11.621106 10.674152 -4.981552 0.000000 -0.000001 -0.000000 0.000000 -0.000001 -0.000000 -0.000000 0.000000 0.000000 -19.271503 2.751236 -3.071711 72.930076 -2.666324 -8.374002 -46.342164 -9.961071 1.767942 -0.000000 0.000000 -0.000000 -0.000000 0.000000 -0.000000 -0.000000 0.000000 0.000000 16.608408 -1.185389 -5.089739 13.604921 -0.514635 -4.926298 13.629648 -0.429703 -4.816199 -3.047296 0.620488 -1.598652 -40.549204 -7.006112 6.613025 0.000001 -0.000000 0.000000 0.000001 -0.000000 0.000000 0.000001 -0.000000 0.000000 -0.723557 -0.079844 3.795589 -116.321222 0.744736 -85.678419 -0.000010 -21.956685 -0.000024 -102.990271 11.835709 -7.648916 2.453278 3.201342 1.332140 19.473189 -1.474927 7.636920 0.000000 0.000000 -0.000000 -0.212823 3.933717 -36.747131 2.944394 5.080217 -60.169937 0.000001 -0.000001 -0.000002 0.405915 5.507037 -52.453165 3.387138 5.308618 -65.057470 0.000000 0.000000 0.000000 -0.074386 5.736777 -61.061440 4.056760 5.570078 -72.112680 0.000002 0.000001 -0.000002 -6.565567 4.545151 -72.425250 3.299638 5.267225 -64.107835 0.000000 0.000002 0.000000 -0.000000 -0.000000 0.000000 0.584582 9.828568 -0.955005 -71.301875 36.647141 74.461630 0.001626 91.080340 -0.001472 -11.599268 -15.023539 -11.225207 8.377121 -4.904142 11.022006 21.620207 -18.183898 -18.379231 -0.000003 0.000000 0.000001 -0.920021 1.683590 12.434960 0.748105 -2.533478 32.898289 -0.000001 0.000001 0.000000 3.413059 -7.186267 51.650246 6.296800 -4.359569 110.634680 0.000002 0.000001 -0.000002 -3.349038 -2.600430 57.010564 5.440854 -4.590910 99.698154 -0.000001 0.000000 0.000000 -3.996447 -3.303938 64.593857 4.058847 -4.618683 82.610516 -0.000000 0.000001 -0.000001 0.000001 -0.000000 -0.000007 -0.000000 -0.000000 0.000000 -0.000000 -0.000000 0.000000 -0.000000 -0.000000 0.000000 -0.000000 -0.000000 0.000000 -0.000000 -0.000000 0.000000 -0.000000 -0.000000 -0.000000 -0.000000 -0.000000 0.000000 -0.000000 -0.000000 0.000000 -0.000000 -0.000000 -0.000000 0.000001 -0.000000 0.000000 0.000001 -0.000000 0.000000 0.000000 0.000000 -0.000001 
0.633989 63.003632 30.826374 19.164829 -9.003068 13.177619 -0.000000 0.000000 -0.000000 -87.001782 2.194002 -1.020608 61.217237 8.066080 -1.086425 -2.090185 4.860789 -2.886974 -0.000001 0.000000 -0.000000 -0.000001 0.000000 -0.000000 0.000000 -0.000000 -0.000001 -19.458285 2.456524 -9.337252 73.315264 -2.497701 -9.897767 -33.376758 -5.395904 4.406281 -0.000002 -0.000000 0.000000 -0.000002 -0.000000 0.000000 -0.000000 -0.000000 -0.000000 16.764243 -0.300597 -7.233136 17.331351 -1.030813 -6.570407 17.367856 -1.065122 -6.442546 -5.489418 -0.129707 -3.818658 -46.668241 -14.618314 4.316792 0.000001 0.000000 -0.000000 0.000001 0.000000 -0.000000 0.000001 0.000000 -0.000000 -0.190417 -1.320697 4.408689 -109.511777 -14.111360 -76.365080 -0.000005 -25.770090 -0.000009 -132.479647 8.455248 -22.721135 1.166587 -0.265073 0.205401 19.473189 -1.474921 7.636928 0.000000 -0.000001 -0.000000 -0.212824 3.933724 -36.747125 2.944394 5.080218 -60.169930 -0.000001 -0.000000 -0.000002 0.405914 5.507052 -52.453169 3.387140 5.308618 -65.057477 0.000001 0.000000 0.000000 -0.074374 5.736784 -61.061434 4.056746 5.570068 -72.112659 0.000001 0.000002 -0.000000 -6.565569 4.545139 -72.425236 3.299634 5.267217 -64.107828 0.000000 0.000001 0.000003 -0.000000 -0.000000 0.000001 0.305943 7.986945 -3.713354 -77.090446 40.592808 70.281472 -0.000049 84.256093 0.000094 -5.483522 -10.813155 1.152112 8.377121 -4.904143 11.022001 21.620207 -18.183902 -18.379225 0.000002 -0.000001 -0.000002 -0.920022 1.683589 12.434965 0.748108 -2.533480 32.898293 -0.000000 0.000001 0.000004 3.413059 -7.186269 51.650246 6.296799 -4.359566 110.634673 -0.000004 0.000001 -0.000000 -3.349040 -2.600430 57.010561 5.440854 -4.590910 99.698154 -0.000001 0.000000 0.000002 -3.996448 -3.303940 64.593857 4.058847 -4.618684 82.610516 -0.000001 -0.000000 0.000000 0.000003 -0.000001 -0.000004 0.000001 -0.000000 -0.000000 0.000001 -0.000000 -0.000000 0.000001 -0.000000 -0.000000 0.000001 -0.000000 -0.000000 0.000001 -0.000000 -0.000000 0.000002 0.000000 0.000000 0.000001 -0.000000 -0.000000 0.000001 -0.000000 -0.000000 0.000002 0.000000 0.000000 -0.000001 -0.000000 0.000000 -0.000001 -0.000000 0.000000 -0.000000 0.000000 -0.000000 
